<svg xmlns="http://www.w3.org/2000/svg" width="208.054" height="68.021" viewBox="0 0 208.054 68.021"><path d="M64.16,16.365A12.372,12.372,0,0,1,63.6,19.93a14.755,14.755,0,0,1-1.721,3.689,18.346,18.346,0,0,1-2.967,3.512,20.008,20.008,0,0,1-4.337,3.036,28.7,28.7,0,0,1-5.759,2.242,34.666,34.666,0,0,1-7.268,1.133,13.018,13.018,0,0,1,4.074,2.339,14.233,14.233,0,0,1,2.734,3.2,20.335,20.335,0,0,1,1.854,3.865,28.2,28.2,0,0,1,1.127,3.914q.367,1.812.8,3.485a30.7,30.7,0,0,0,.928,3,6.252,6.252,0,0,0,1.244,2.127,2.63,2.63,0,0,0,2.012.8,9.628,9.628,0,0,0,2.619-.405,17.166,17.166,0,0,0,2.918-1.142,22.686,22.686,0,0,0,2.954-1.758,21.909,21.909,0,0,0,2.724-2.25L71.613,57.6a3.986,3.986,0,0,0-.668.439q-.667.474-1.863,1.2t-2.83,1.582a31.72,31.72,0,0,1-7.77,2.83,20.373,20.373,0,0,1-4.48.493,7.512,7.512,0,0,1-4.4-1.266,10.987,10.987,0,0,1-3.093-3.338,21.576,21.576,0,0,1-2.121-4.727q-.849-2.653-1.377-5.113T41.869,44.39q-.614-2.852-1.307-5.049a10.75,10.75,0,0,0-1.7-3.464,3.1,3.1,0,0,0-2.523-1.266H33.891q-1.086,7.6-2.073,13.723A53.343,53.343,0,0,1,29.2,58.729a16.941,16.941,0,0,1-4.078,6.53,8.525,8.525,0,0,1-6,2.259,12.2,12.2,0,0,1-5.15-1.073A14.61,14.61,0,0,1,9.756,63.51a19.706,19.706,0,0,1-3.287-4.36,29.288,29.288,0,0,1-2.338-5.361,37.9,37.9,0,0,1-1.406-5.924,39.534,39.534,0,0,1-.475-6.082A42.508,42.508,0,0,1,13.692,12.727a40.447,40.447,0,0,1,8.15-6.715A39.556,39.556,0,0,1,42.984.018,28.076,28.076,0,0,1,48.217.51a26.23,26.23,0,0,1,4.951,1.441,22.123,22.123,0,0,1,4.373,2.356,16.637,16.637,0,0,1,3.476,3.216,14.759,14.759,0,0,1,2.3,4.026A13.428,13.428,0,0,1,64.16,16.365ZM42.353,7.893A30.946,30.946,0,0,0,31.979,9.51a27.57,27.57,0,0,0-8.013,4.359,28.07,28.07,0,0,0-5.883,6.363,37.671,37.671,0,0,0-3.945,7.594,42.324,42.324,0,0,0-2.2,8.051,46.827,46.827,0,0,0-.687,7.769,33.7,33.7,0,0,0,.492,5.713,20.555,20.555,0,0,0,1.547,5.151,10.625,10.625,0,0,0,2.725,3.709,6,6,0,0,0,4.025,1.424,2.873,2.873,0,0,0,2.109-.932,8.523,8.523,0,0,0,1.618-2.5A22.516,22.516,0,0,0,25,52.594a28.5,28.5,0,0,0,.748-4.278q.222-2.22.445-4.477l.42-4.214q.193-1.957.275-3.471t.081-2.311a22.32,22.32,0,0,1-4.114-2.306,3.077,3.077,0,0,1-1.406-2.473c0-.258.017-.569.053-.931a3.924,3.924,0,0,1,.225-1.009,2.181,2.181,0,0,1,.505-.8,1.2,1.2,0,0,1,.887-.33c.162,0,.487-.009.974-.029s1-.042,1.53-.069,1.026-.05,1.478-.069.748-.028.887-.028l.036.054c.022-.511.064-1.062.123-1.649s.158-1.256.3-2.007a15.17,15.17,0,0,1,.62-2.267,8.193,8.193,0,0,1,1.082-2.075,5.615,5.615,0,0,1,1.611-1.511,4.272,4.272,0,0,1,2.287-.58,2.761,2.761,0,0,1,2.356.814,3.476,3.476,0,0,1,.585,2.082v.326a15.189,15.189,0,0,1-.79,3.639,53.155,53.155,0,0,0-1.338,5.232,41.419,41.419,0,0,0,9.949-1.179,19.687,19.687,0,0,0,6.213-2.7A9.57,9.57,0,0,0,54.236,20.4a8.723,8.723,0,0,0,.924-3.757,7.055,7.055,0,0,0-.825-3.3A8.284,8.284,0,0,0,51.9,10.547a12.728,12.728,0,0,0-4-1.934A19.236,19.236,0,0,0,42.353,7.893Z" fill="#3168a3"/><path d="M86.484,53.279a31.089,31.089,0,0,1-3.146,2.479,33.6,33.6,0,0,1-4.061,2.426,30.973,30.973,0,0,1-4.447,1.845,13.931,13.931,0,0,1-4.307.739,8.157,8.157,0,0,1-3.076-.51,5.123,5.123,0,0,1-2.021-1.424A5.483,5.483,0,0,1,64.318,56.6a11.79,11.79,0,0,1-.334-2.9,31.876,31.876,0,0,1,.493-5.168q1.012-6.108,1.3-6.863.48-1.5,1.917-6.652,1.333-4.2,1.648-5.466a2.865,2.865,0,0,1,.968-1.6,6.421,6.421,0,0,1,1.64-1.049,8.943,8.943,0,0,1,1.9-.6,9.233,9.233,0,0,1,1.778-.2,2.709,2.709,0,0,1,1.969.544,2.033,2.033,0,0,1,.518,1.459,9.508,9.508,0,0,1-.361,2.186q-.36,1.413-.822,3.219t-1.369,4.646A35.455,35.455,0,0,0,74.328,43q-.333,2-.838,3.98a14.589,14.589,0,0,0-.506,3.594,7.3,7.3,0,0,0,.352,2.512,1.392,1.392,0,0,0,1.441.932,5.8,5.8,0,0,0,2.813-.879,25.131,25.131,0,0,0,3.129-2.127q1.581-1.248,3.093-2.584t2.672-2.285ZM70.77,16.386a6,6,0,0,1,1.494-3.78,6.35,6.35,0,0,1,2.109-1.526,7.7,7.7,0,0,1,3.287-.621,9.183,9.183,0,0,1,2.32.284,5.661,5.661,0,0,1,1.9.869,4.123,4.123,0,0,1,1.283,1.544,5.057,5.057,0,0,1,.475,2.271,7.218,7.218,0,0,1-.387,2.343,5.469,5.469,0,0,1-1.23,2.022,6.35,6.35,0,0,1-2.127,1.437,7.781,7.781,0,0,1-3.077.55,6.238,6.238,0,0,1-4.57-1.472A5.294,5.294,0,0,1,70.77,16.386Z" fill="#3168a3"/><path d="M84.031,49.377q-.114-2.637-.219-4.588t-.193-3.533q-.087-1.582-.123-2.918T83.461,35.6a43.733,43.733,0,0,1,.355-6.7q.354-2.021,1.549-2.2l4.481-.668.336-.07h.373a1.591,1.591,0,0,1,1.389.7,2.913,2.913,0,0,1,.517,1.617l-.668,23.309.24-.035,9.6-23.45a2.358,2.358,0,0,1,.457-.949,3.184,3.184,0,0,1,.914-.791,5.77,5.77,0,0,1,1.248-.545,4.953,4.953,0,0,1,1.459-.211,5.778,5.778,0,0,1,3.27.827,2.478,2.478,0,0,1,1.23,2.126,6.094,6.094,0,0,1-.281,1.864,9.838,9.838,0,0,1-.7,1.933q-.915,1.794-1.125,2.285-1.582,3.8-1.793,4.395-.212.633-.422,1.3a10.87,10.87,0,0,0-.3,1.353,9.632,9.632,0,0,0-.123,1.565,6.5,6.5,0,0,0,.211,1.652,3.811,3.811,0,0,0,.738,1.459,3.631,3.631,0,0,0,1.442,1.037,6.073,6.073,0,0,0,2.355.387,6.814,6.814,0,0,0,2.443-.545A19.88,19.88,0,0,0,115.271,46q1.442-.809,2.954-1.828v8.262a23.624,23.624,0,0,1-4.8,2.355,14.149,14.149,0,0,1-4.729.879,9.308,9.308,0,0,1-3.392-.58,7.629,7.629,0,0,1-2.532-1.565,7.372,7.372,0,0,1-1.617-2.214,6.358,6.358,0,0,1-.615-2.567q-1.02,2.109-2.32,4.324a37.83,37.83,0,0,1-2.69,4.008,19.1,19.1,0,0,1-2.75,2.936,4.045,4.045,0,0,1-2.488,1.142,5,5,0,0,1-3.375-1.037A6.223,6.223,0,0,1,85.137,57.5a13.438,13.438,0,0,1-.75-3.445q-.169-1.863-.282-3.551Z" fill="#3168a3"/><path d="M126.123,60.768a12.823,12.823,0,0,1-5.745-1.217,11.936,11.936,0,0,1-4.1-3.274,14.136,14.136,0,0,1-2.462-4.759,19.419,19.419,0,0,1-.821-5.673,17.991,17.991,0,0,1,.735-4.632q.733-2.69,1.521-4.771a22.044,22.044,0,0,1,1.975-3.972A15.814,15.814,0,0,1,120,29.139a12.8,12.8,0,0,1,3.567-2.29A10.969,10.969,0,0,1,127.958,26a10.369,10.369,0,0,1,3.66.632,8.969,8.969,0,0,1,2.939,1.773,8.024,8.024,0,0,1,1.954,2.757,8.982,8.982,0,0,1,.7,3.616,10.273,10.273,0,0,1-1.427,4.779,19.153,19.153,0,0,1-3.33,4.537,20.942,20.942,0,0,1-4.526,3.369,24.586,24.586,0,0,1-5.69,2.3,10.841,10.841,0,0,0,1.041,1.548,4.683,4.683,0,0,0,1.04.962,3.507,3.507,0,0,0,1.112.481,5.424,5.424,0,0,0,1.253.138,13.346,13.346,0,0,0,4.447-.826,29.288,29.288,0,0,0,4.553-2.062,38.763,38.763,0,0,0,4.183-2.7,35.667,35.667,0,0,0,3.34-2.768l4.535,4.607a46.9,46.9,0,0,1-6.574,5.829q-1.512,1.086-3.252,2.136a29.125,29.125,0,0,1-3.656,1.865,24.823,24.823,0,0,1-3.973,1.3A17.961,17.961,0,0,1,126.123,60.768ZM121.43,44.023a7.144,7.144,0,0,0,2.77-.635,12.576,12.576,0,0,0,2.788-1.633,13.331,13.331,0,0,0,2.523-2.682,5.169,5.169,0,0,0,1.235-2.784,4.994,4.994,0,0,0-.582-2.544,1.677,1.677,0,0,0-1.43-1,5.411,5.411,0,0,0-4.393,1.977,7.33,7.33,0,0,0-1.164,1.994q-.443,1.116-1.024,2.767A10.7,10.7,0,0,0,121.5,42.2Q121.43,43.268,121.43,44.023Z" fill="#3168a3"/><path d="M140.836,53.42q0-1.546.176-3.6t.474-4.341q.3-2.286.7-4.659t1.038-5.062q.631-2.69,1.089-4.483a25.564,25.564,0,0,1,.914-2.953,6.917,6.917,0,0,1,.563-1.23,2.445,2.445,0,0,1,.65-.721,2.124,2.124,0,0,1,.914-.351,8.79,8.79,0,0,1,1.354-.088,8.948,8.948,0,0,1,1.424.088,1.128,1.128,0,0,1,.756.422,1.893,1.893,0,0,1,.3.966q.054.633.053,1.723,0,1.3-.176,3.691a37.767,37.767,0,0,0-.1,4.184h.387q.7-1.406,1.757-3.691a20.083,20.083,0,0,1,2.215-3.8,12.06,12.06,0,0,1,2.637-2.549,5.786,5.786,0,0,1,3.41-1.037,3.813,3.813,0,0,1,1.3.228,3.363,3.363,0,0,1,1.107.651,3.079,3.079,0,0,1,.756,1.037,3.294,3.294,0,0,1,.281,1.388,11.03,11.03,0,0,1-.175,1.67q-.177,1.074-.563,2.8t-.562,2.83a12.077,12.077,0,0,0-.176,1.846,7.656,7.656,0,0,0,.246,2.109,3.937,3.937,0,0,0,.65,1.354,2.3,2.3,0,0,0,.914.721,2.793,2.793,0,0,0,1.073.211,8.457,8.457,0,0,0,3.269-.7,21.136,21.136,0,0,0,3.094-1.582,29.245,29.245,0,0,0,3.234-2.32l-.527,8.227q-.915.6-2.074,1.336a26.192,26.192,0,0,1-2.479,1.388,18.528,18.528,0,0,1-2.742,1.09,9.747,9.747,0,0,1-2.9.44,7.566,7.566,0,0,1-4.254-1.073,7.8,7.8,0,0,1-2.567-2.812,14.259,14.259,0,0,1-1.406-3.9q-.457-2.161-.738-4.376h-.563l-6.293,17.542a22.584,22.584,0,0,1-.931,2.268,7.691,7.691,0,0,1-.9,1.459,2.643,2.643,0,0,1-.984.791,2.876,2.876,0,0,1-1.16.229,3.689,3.689,0,0,1-3.674-2.268,7.922,7.922,0,0,1-.633-2.355A22.973,22.973,0,0,1,140.836,53.42Z" fill="#3168a3"/><path d="M208.051,52.056a33.136,33.136,0,0,1-2.162,2.666,26.571,26.571,0,0,1-3.041,2.915,18.964,18.964,0,0,1-3.621,2.347,8.63,8.63,0,0,1-3.867.959,5.439,5.439,0,0,1-3.9-1.478,12.036,12.036,0,0,1-2.693-4.3,17.119,17.119,0,0,1-2.091,1.983,18.621,18.621,0,0,1-2.711,1.827,17.57,17.57,0,0,1-3.066,1.339,10.2,10.2,0,0,1-3.189.522,8.188,8.188,0,0,1-3.287-.692,8.545,8.545,0,0,1-2.83-1.985A9.716,9.716,0,0,1,169.629,55a11.324,11.324,0,0,1-.738-4.2,20.779,20.779,0,0,1,.742-5.4,34.524,34.524,0,0,1,2.3-5.99,32.533,32.533,0,0,1,3.342-5.571,24.623,24.623,0,0,1,3.908-4.1,19.08,19.08,0,0,1,4.474-2.786,11.8,11.8,0,0,1,4.792-1.033,2.2,2.2,0,0,1,1.273.32,3.147,3.147,0,0,1,.76.728q.3.408.584.8a1.645,1.645,0,0,0,.707.569,3.235,3.235,0,0,0,.867.23,7.421,7.421,0,0,0,.9.053c.259,0,.523,0,.8-.017s.537-.018.8-.018a4.39,4.39,0,0,1,.991.106,1.665,1.665,0,0,1,.812.463,2.353,2.353,0,0,1,.546.994,6.283,6.283,0,0,1,.193,1.741,22.243,22.243,0,0,1-.351,3.729q-.353,2.047-.805,4.2t-1.035,4.9a23.139,23.139,0,0,0-.58,4.637,8.353,8.353,0,0,0,.3,2.519,1.228,1.228,0,0,0,1.283.908,3.755,3.755,0,0,0,1.547-.366,9.648,9.648,0,0,0,1.635-.958,18.678,18.678,0,0,0,1.652-1.342q.825-.748,1.564-1.551a53.925,53.925,0,0,0,3.481-4.252ZM177.891,49.3a12.163,12.163,0,0,0,.123,1.759,5.343,5.343,0,0,0,.44,1.522,2.98,2.98,0,0,0,.845,1.088,2.092,2.092,0,0,0,1.338.417A3.173,3.173,0,0,0,183,52.955a11.027,11.027,0,0,0,1.831-2.725,19.606,19.606,0,0,0,1.25-3.292,19.963,19.963,0,0,0,.616-2.831l2.622-11.429a6.009,6.009,0,0,0-2.812.715,10.491,10.491,0,0,0-2.584,1.934,17.279,17.279,0,0,0-2.232,2.787,25.478,25.478,0,0,0-2,3.869,24.652,24.652,0,0,0-1.389,4.042A14.512,14.512,0,0,0,177.891,49.3Z" fill="#3168a3"/></svg>